<svg width="1240" height="44" viewBox="0 0 1240 44" fill="none" xmlns="http://www.w3.org/2000/svg">
<path d="M1.68 31.5V14.22H4.572V21.492H12.756V14.22H15.636V31.5H12.756V24.204H4.572V31.5H1.68ZM25.6123 31.86C24.3003 31.86 23.1483 31.576 22.1563 31.008C21.1643 30.44 20.3883 29.652 19.8283 28.644C19.2763 27.636 19.0003 26.476 19.0003 25.164C19.0003 23.748 19.2723 22.52 19.8163 21.48C20.3603 20.432 21.1163 19.62 22.0843 19.044C23.0523 18.468 24.1723 18.18 25.4443 18.18C26.7883 18.18 27.9283 18.496 28.8643 19.128C29.8083 19.752 30.5083 20.636 30.9643 21.78C31.4203 22.924 31.5923 24.272 31.4803 25.824H28.6123V24.768C28.6043 23.36 28.3563 22.332 27.8683 21.684C27.3803 21.036 26.6123 20.712 25.5643 20.712C24.3803 20.712 23.5003 21.08 22.9243 21.816C22.3483 22.544 22.0603 23.612 22.0603 25.02C22.0603 26.332 22.3483 27.348 22.9243 28.068C23.5003 28.788 24.3403 29.148 25.4443 29.148C26.1563 29.148 26.7683 28.992 27.2803 28.68C27.8003 28.36 28.2003 27.9 28.4803 27.3L31.3363 28.164C30.8403 29.332 30.0723 30.24 29.0323 30.888C28.0003 31.536 26.8603 31.86 25.6123 31.86ZM21.1483 25.824V23.64H30.0643V25.824H21.1483ZM38.2674 31.86C37.3314 31.86 36.5394 31.684 35.8914 31.332C35.2434 30.972 34.7514 30.496 34.4154 29.904C34.0874 29.312 33.9234 28.66 33.9234 27.948C33.9234 27.324 34.0274 26.764 34.2354 26.268C34.4434 25.764 34.7634 25.332 35.1954 24.972C35.6274 24.604 36.1874 24.304 36.8754 24.072C37.3954 23.904 38.0034 23.752 38.6994 23.616C39.4034 23.48 40.1634 23.356 40.9794 23.244C41.8034 23.124 42.6634 22.996 43.5594 22.86L42.5274 23.448C42.5354 22.552 42.3354 21.892 41.9274 21.468C41.5194 21.044 40.8314 20.832 39.8634 20.832C39.2794 20.832 38.7154 20.968 38.1714 21.24C37.6274 21.512 37.2474 21.98 37.0314 22.644L34.3914 21.816C34.7114 20.72 35.3194 19.84 36.2154 19.176C37.1194 18.512 38.3354 18.18 39.8634 18.18C41.0154 18.18 42.0274 18.368 42.8994 18.744C43.7794 19.12 44.4314 19.736 44.8554 20.592C45.0874 21.048 45.2274 21.516 45.2754 21.996C45.3234 22.468 45.3474 22.984 45.3474 23.544V31.5H42.8154V28.692L43.2354 29.148C42.6514 30.084 41.9674 30.772 41.1834 31.212C40.4074 31.644 39.4354 31.86 38.2674 31.86ZM38.8434 29.556C39.4994 29.556 40.0594 29.44 40.5234 29.208C40.9874 28.976 41.3554 28.692 41.6274 28.356C41.9074 28.02 42.0954 27.704 42.1914 27.408C42.3434 27.04 42.4274 26.62 42.4434 26.148C42.4674 25.668 42.4794 25.28 42.4794 24.984L43.3674 25.248C42.4954 25.384 41.7474 25.504 41.1234 25.608C40.4994 25.712 39.9634 25.812 39.5154 25.908C39.0674 25.996 38.6714 26.096 38.3274 26.208C37.9914 26.328 37.7074 26.468 37.4754 26.628C37.2434 26.788 37.0634 26.972 36.9354 27.18C36.8154 27.388 36.7554 27.632 36.7554 27.912C36.7554 28.232 36.8354 28.516 36.9954 28.764C37.1554 29.004 37.3874 29.196 37.6914 29.34C38.0034 29.484 38.3874 29.556 38.8434 29.556ZM49.4316 31.5V13.86H52.3236V31.5H49.4316ZM65.6021 31.5V25.26C65.6021 24.852 65.5741 24.4 65.5181 23.904C65.4621 23.408 65.3301 22.932 65.1221 22.476C64.9221 22.012 64.6181 21.632 64.2101 21.336C63.8101 21.04 63.2661 20.892 62.5781 20.892C62.2101 20.892 61.8461 20.952 61.4861 21.072C61.1261 21.192 60.7981 21.4 60.5021 21.696C60.2141 21.984 59.9821 22.384 59.8061 22.896C59.6301 23.4 59.5421 24.048 59.5421 24.84L57.8261 24.108C57.8261 23.004 58.0381 22.004 58.4621 21.108C58.8941 20.212 59.5261 19.5 60.3581 18.972C61.1901 18.436 62.2141 18.168 63.4301 18.168C64.3901 18.168 65.1821 18.328 65.8061 18.648C66.4301 18.968 66.9261 19.376 67.2941 19.872C67.6621 20.368 67.9341 20.896 68.1101 21.456C68.2861 22.016 68.3981 22.548 68.4461 23.052C68.5021 23.548 68.5301 23.952 68.5301 24.264V31.5H65.6021ZM56.6141 31.5V14.22H59.1941V23.316H59.5421V31.5H56.6141ZM79.9776 31.5C79.1216 31.66 78.2816 31.728 77.4576 31.704C76.6416 31.688 75.9096 31.54 75.2616 31.26C74.6136 30.972 74.1216 30.52 73.7856 29.904C73.4896 29.344 73.3336 28.772 73.3176 28.188C73.3016 27.604 73.2936 26.944 73.2936 26.208V14.94H76.1736V26.04C76.1736 26.56 76.1776 27.016 76.1856 27.408C76.2016 27.8 76.2856 28.12 76.4376 28.368C76.7256 28.848 77.1856 29.116 77.8176 29.172C78.4496 29.228 79.1696 29.196 79.9776 29.076V31.5ZM70.9416 20.808V18.54H79.9776V20.808H70.9416ZM84.8368 37.26L87.3328 30.408L87.3808 32.424L81.7288 18.54H84.7408L88.7488 28.812H87.9808L91.8808 18.54H94.7728L87.5488 37.26H84.8368Z" fill="#121212"/>
<path d="M104.591 31.86C102.863 31.86 101.383 31.484 100.151 30.732C98.9185 29.972 97.9705 28.916 97.3065 27.564C96.6505 26.212 96.3225 24.644 96.3225 22.86C96.3225 21.076 96.6505 19.508 97.3065 18.156C97.9705 16.804 98.9185 15.752 100.151 15C101.383 14.24 102.863 13.86 104.591 13.86C106.583 13.86 108.243 14.36 109.571 15.36C110.899 16.352 111.831 17.692 112.367 19.38L109.451 20.184C109.115 19.056 108.543 18.176 107.735 17.544C106.927 16.904 105.879 16.584 104.591 16.584C103.431 16.584 102.463 16.844 101.687 17.364C100.919 17.884 100.339 18.616 99.9465 19.56C99.5625 20.496 99.3665 21.596 99.3585 22.86C99.3585 24.124 99.5505 25.228 99.9345 26.172C100.327 27.108 100.911 27.836 101.687 28.356C102.463 28.876 103.431 29.136 104.591 29.136C105.879 29.136 106.927 28.816 107.735 28.176C108.543 27.536 109.115 26.656 109.451 25.536L112.367 26.34C111.831 28.028 110.899 29.372 109.571 30.372C108.243 31.364 106.583 31.86 104.591 31.86ZM119.345 31.86C118.409 31.86 117.617 31.684 116.969 31.332C116.321 30.972 115.829 30.496 115.493 29.904C115.165 29.312 115.001 28.66 115.001 27.948C115.001 27.324 115.105 26.764 115.313 26.268C115.521 25.764 115.841 25.332 116.273 24.972C116.705 24.604 117.265 24.304 117.953 24.072C118.473 23.904 119.081 23.752 119.777 23.616C120.481 23.48 121.241 23.356 122.057 23.244C122.881 23.124 123.741 22.996 124.637 22.86L123.605 23.448C123.613 22.552 123.413 21.892 123.005 21.468C122.597 21.044 121.909 20.832 120.941 20.832C120.357 20.832 119.793 20.968 119.249 21.24C118.705 21.512 118.325 21.98 118.109 22.644L115.469 21.816C115.789 20.72 116.397 19.84 117.293 19.176C118.197 18.512 119.413 18.18 120.941 18.18C122.093 18.18 123.105 18.368 123.977 18.744C124.857 19.12 125.509 19.736 125.933 20.592C126.165 21.048 126.305 21.516 126.353 21.996C126.401 22.468 126.425 22.984 126.425 23.544V31.5H123.893V28.692L124.313 29.148C123.729 30.084 123.045 30.772 122.261 31.212C121.485 31.644 120.513 31.86 119.345 31.86ZM119.921 29.556C120.577 29.556 121.137 29.44 121.601 29.208C122.065 28.976 122.433 28.692 122.705 28.356C122.985 28.02 123.173 27.704 123.269 27.408C123.421 27.04 123.505 26.62 123.521 26.148C123.545 25.668 123.557 25.28 123.557 24.984L124.445 25.248C123.573 25.384 122.825 25.504 122.201 25.608C121.577 25.712 121.041 25.812 120.593 25.908C120.145 25.996 119.749 26.096 119.405 26.208C119.069 26.328 118.785 26.468 118.553 26.628C118.321 26.788 118.141 26.972 118.013 27.18C117.893 27.388 117.833 27.632 117.833 27.912C117.833 28.232 117.913 28.516 118.073 28.764C118.233 29.004 118.465 29.196 118.769 29.34C119.081 29.484 119.465 29.556 119.921 29.556ZM130.269 31.5V18.54H132.825V21.696L132.513 21.288C132.673 20.856 132.885 20.464 133.149 20.112C133.421 19.752 133.745 19.456 134.121 19.224C134.441 19.008 134.793 18.84 135.177 18.72C135.569 18.592 135.969 18.516 136.377 18.492C136.785 18.46 137.181 18.476 137.565 18.54V21.24C137.181 21.128 136.737 21.092 136.233 21.132C135.737 21.172 135.289 21.312 134.889 21.552C134.489 21.768 134.161 22.044 133.905 22.38C133.657 22.716 133.473 23.1 133.353 23.532C133.233 23.956 133.173 24.416 133.173 24.912V31.5H130.269ZM146.233 31.86C144.921 31.86 143.769 31.576 142.777 31.008C141.785 30.44 141.009 29.652 140.449 28.644C139.897 27.636 139.621 26.476 139.621 25.164C139.621 23.748 139.893 22.52 140.437 21.48C140.981 20.432 141.737 19.62 142.705 19.044C143.673 18.468 144.793 18.18 146.065 18.18C147.409 18.18 148.549 18.496 149.485 19.128C150.429 19.752 151.129 20.636 151.585 21.78C152.041 22.924 152.213 24.272 152.101 25.824H149.233V24.768C149.225 23.36 148.977 22.332 148.489 21.684C148.001 21.036 147.233 20.712 146.185 20.712C145.001 20.712 144.121 21.08 143.545 21.816C142.969 22.544 142.681 23.612 142.681 25.02C142.681 26.332 142.969 27.348 143.545 28.068C144.121 28.788 144.961 29.148 146.065 29.148C146.777 29.148 147.389 28.992 147.901 28.68C148.421 28.36 148.821 27.9 149.101 27.3L151.957 28.164C151.461 29.332 150.693 30.24 149.653 30.888C148.621 31.536 147.481 31.86 146.233 31.86ZM141.769 25.824V23.64H150.685V25.824H141.769ZM155.738 31.5V13.86H158.63V31.5H155.738ZM164.649 37.26L167.145 30.408L167.193 32.424L161.541 18.54H164.553L168.561 28.812H167.793L171.693 18.54H174.585L167.361 37.26H164.649Z" fill="#4D77FF"/>
<path d="M215.98 27V16.92H217.226V21.365H222.532V16.92H223.778V27H222.532V22.548H217.226V27H215.98ZM229.382 27.21C228.63 27.21 227.982 27.0397 227.436 26.699C226.894 26.3583 226.477 25.887 226.183 25.285C225.889 24.683 225.742 23.9923 225.742 23.213C225.742 22.4197 225.891 21.7243 226.19 21.127C226.488 20.5297 226.911 20.0653 227.457 19.734C228.003 19.398 228.644 19.23 229.382 19.23C230.138 19.23 230.789 19.4003 231.335 19.741C231.881 20.077 232.298 20.546 232.588 21.148C232.882 21.7453 233.029 22.4337 233.029 23.213C233.029 24.0017 232.882 24.697 232.588 25.299C232.294 25.8963 231.874 26.3653 231.328 26.706C230.782 27.042 230.133 27.21 229.382 27.21ZM229.382 26.027C230.166 26.027 230.749 25.7657 231.132 25.243C231.514 24.7203 231.706 24.0437 231.706 23.213C231.706 22.359 231.512 21.68 231.125 21.176C230.737 20.6673 230.156 20.413 229.382 20.413C228.854 20.413 228.42 20.532 228.08 20.77C227.739 21.008 227.485 21.337 227.317 21.757C227.149 22.177 227.065 22.6623 227.065 23.213C227.065 24.0623 227.261 24.7437 227.653 25.257C228.045 25.7703 228.621 26.027 229.382 26.027ZM244.027 27L244.034 22.163C244.034 21.5983 243.882 21.1573 243.579 20.84C243.28 20.518 242.891 20.357 242.41 20.357C242.13 20.357 241.864 20.4223 241.612 20.553C241.36 20.679 241.155 20.8797 240.996 21.155C240.837 21.4257 240.758 21.7733 240.758 22.198L240.1 21.932C240.091 21.3953 240.2 20.9263 240.429 20.525C240.662 20.119 240.98 19.804 241.381 19.58C241.782 19.356 242.235 19.244 242.739 19.244C243.528 19.244 244.148 19.4843 244.601 19.965C245.054 20.441 245.28 21.0827 245.28 21.89L245.273 27H244.027ZM234.983 27V19.44H236.096V21.463H236.236V27H234.983ZM239.512 27L239.519 22.212C239.519 21.6333 239.37 21.1807 239.071 20.854C238.772 20.5227 238.376 20.357 237.881 20.357C237.391 20.357 236.994 20.525 236.691 20.861C236.388 21.197 236.236 21.6427 236.236 22.198L235.578 21.806C235.578 21.316 235.695 20.8773 235.928 20.49C236.161 20.1027 236.479 19.7993 236.88 19.58C237.281 19.356 237.736 19.244 238.245 19.244C238.754 19.244 239.197 19.3513 239.575 19.566C239.953 19.7807 240.245 20.0887 240.45 20.49C240.655 20.8867 240.758 21.3603 240.758 21.911L240.751 27H239.512ZM250.731 27.21C249.989 27.21 249.34 27.0467 248.785 26.72C248.234 26.3887 247.805 25.929 247.497 25.341C247.189 24.7483 247.035 24.0577 247.035 23.269C247.035 22.443 247.187 21.729 247.49 21.127C247.793 20.5203 248.216 20.0537 248.757 19.727C249.303 19.3957 249.942 19.23 250.675 19.23C251.436 19.23 252.082 19.405 252.614 19.755C253.151 20.105 253.552 20.6043 253.818 21.253C254.089 21.9017 254.205 22.674 254.168 23.57H252.908V23.122C252.894 22.1933 252.705 21.5003 252.341 21.043C251.977 20.581 251.436 20.35 250.717 20.35C249.947 20.35 249.361 20.5973 248.96 21.092C248.559 21.5867 248.358 22.296 248.358 23.22C248.358 24.1113 248.559 24.802 248.96 25.292C249.361 25.782 249.933 26.027 250.675 26.027C251.174 26.027 251.608 25.9127 251.977 25.684C252.346 25.4553 252.635 25.1263 252.845 24.697L254.042 25.11C253.748 25.7773 253.305 26.2953 252.712 26.664C252.124 27.028 251.464 27.21 250.731 27.21ZM247.938 23.57V22.569H253.524V23.57H247.938Z" fill="#121212"/>
<path d="M295.98 27V16.92H299.088C299.191 16.92 299.37 16.9223 299.627 16.927C299.884 16.9317 300.129 16.9503 300.362 16.983C301.141 17.0857 301.792 17.3703 302.315 17.837C302.842 18.299 303.239 18.887 303.505 19.601C303.771 20.315 303.904 21.1013 303.904 21.96C303.904 22.8187 303.771 23.605 303.505 24.319C303.239 25.033 302.842 25.6233 302.315 26.09C301.792 26.552 301.141 26.8343 300.362 26.937C300.129 26.965 299.881 26.9837 299.62 26.993C299.363 26.9977 299.186 27 299.088 27H295.98ZM297.261 25.81H299.088C299.265 25.81 299.464 25.8053 299.683 25.796C299.902 25.782 300.094 25.761 300.257 25.733C300.808 25.6303 301.253 25.3993 301.594 25.04C301.935 24.6807 302.184 24.2327 302.343 23.696C302.502 23.1593 302.581 22.5807 302.581 21.96C302.581 21.3253 302.499 20.7397 302.336 20.203C302.177 19.6663 301.928 19.2207 301.587 18.866C301.246 18.5113 300.803 18.285 300.257 18.187C300.094 18.1543 299.9 18.1333 299.676 18.124C299.452 18.1147 299.256 18.11 299.088 18.11H297.261V25.81ZM309.149 27.21C308.398 27.21 307.749 27.0397 307.203 26.699C306.662 26.3583 306.244 25.887 305.95 25.285C305.656 24.683 305.509 23.9923 305.509 23.213C305.509 22.4197 305.659 21.7243 305.957 21.127C306.256 20.5297 306.678 20.0653 307.224 19.734C307.77 19.398 308.412 19.23 309.149 19.23C309.905 19.23 310.556 19.4003 311.102 19.741C311.648 20.077 312.066 20.546 312.355 21.148C312.649 21.7453 312.796 22.4337 312.796 23.213C312.796 24.0017 312.649 24.697 312.355 25.299C312.061 25.8963 311.641 26.3653 311.095 26.706C310.549 27.042 309.901 27.21 309.149 27.21ZM309.149 26.027C309.933 26.027 310.517 25.7657 310.899 25.243C311.282 24.7203 311.473 24.0437 311.473 23.213C311.473 22.359 311.28 21.68 310.892 21.176C310.505 20.6673 309.924 20.413 309.149 20.413C308.622 20.413 308.188 20.532 307.847 20.77C307.507 21.008 307.252 21.337 307.084 21.757C306.916 22.177 306.832 22.6623 306.832 23.213C306.832 24.0623 307.028 24.7437 307.42 25.257C307.812 25.7703 308.389 26.027 309.149 26.027ZM317.943 27.21C317.177 27.21 316.526 27.0397 315.99 26.699C315.458 26.3537 315.052 25.88 314.772 25.278C314.492 24.676 314.347 23.99 314.338 23.22C314.347 22.4313 314.494 21.7383 314.779 21.141C315.068 20.539 315.481 20.07 316.018 19.734C316.554 19.398 317.201 19.23 317.957 19.23C318.755 19.23 319.441 19.426 320.015 19.818C320.593 20.21 320.981 20.7467 321.177 21.428L319.945 21.799C319.786 21.3603 319.527 21.0197 319.168 20.777C318.813 20.5343 318.405 20.413 317.943 20.413C317.425 20.413 316.998 20.5343 316.662 20.777C316.326 21.015 316.076 21.3463 315.913 21.771C315.749 22.191 315.665 22.674 315.661 23.22C315.67 24.06 315.864 24.739 316.242 25.257C316.624 25.7703 317.191 26.027 317.943 26.027C318.437 26.027 318.848 25.915 319.175 25.691C319.501 25.4623 319.749 25.1333 319.917 24.704L321.177 25.033C320.915 25.7377 320.507 26.2767 319.952 26.65C319.396 27.0233 318.727 27.21 317.943 27.21ZM327.246 27C326.798 27.0887 326.355 27.1237 325.916 27.105C325.482 27.091 325.095 27.0047 324.754 26.846C324.413 26.6827 324.154 26.4307 323.977 26.09C323.828 25.7913 323.746 25.4903 323.732 25.187C323.723 24.879 323.718 24.5313 323.718 24.144V17.34H324.964V24.088C324.964 24.396 324.966 24.6597 324.971 24.879C324.98 25.0983 325.029 25.2873 325.118 25.446C325.286 25.7447 325.552 25.9197 325.916 25.971C326.285 26.0223 326.728 26.0083 327.246 25.929V27ZM322.185 20.469V19.44H327.246V20.469H322.185ZM332.107 27.21C331.355 27.21 330.707 27.0397 330.161 26.699C329.619 26.3583 329.202 25.887 328.908 25.285C328.614 24.683 328.467 23.9923 328.467 23.213C328.467 22.4197 328.616 21.7243 328.915 21.127C329.213 20.5297 329.636 20.0653 330.182 19.734C330.728 19.398 331.369 19.23 332.107 19.23C332.863 19.23 333.514 19.4003 334.06 19.741C334.606 20.077 335.023 20.546 335.313 21.148C335.607 21.7453 335.754 22.4337 335.754 23.213C335.754 24.0017 335.607 24.697 335.313 25.299C335.019 25.8963 334.599 26.3653 334.053 26.706C333.507 27.042 332.858 27.21 332.107 27.21ZM332.107 26.027C332.891 26.027 333.474 25.7657 333.857 25.243C334.239 24.7203 334.431 24.0437 334.431 23.213C334.431 22.359 334.237 21.68 333.85 21.176C333.462 20.6673 332.881 20.413 332.107 20.413C331.579 20.413 331.145 20.532 330.805 20.77C330.464 21.008 330.21 21.337 330.042 21.757C329.874 22.177 329.79 22.6623 329.79 23.213C329.79 24.0623 329.986 24.7437 330.378 25.257C330.77 25.7703 331.346 26.027 332.107 26.027ZM337.715 27V19.44H338.828V21.267L338.646 21.029C338.734 20.7957 338.849 20.581 338.989 20.385C339.133 20.189 339.294 20.028 339.472 19.902C339.668 19.7433 339.889 19.622 340.137 19.538C340.384 19.454 340.636 19.405 340.893 19.391C341.149 19.3723 341.39 19.3887 341.614 19.44V20.609C341.352 20.539 341.065 20.5203 340.753 20.553C340.44 20.5857 340.151 20.7 339.885 20.896C339.642 21.0687 339.453 21.2787 339.318 21.526C339.187 21.7733 339.096 22.0417 339.045 22.331C338.993 22.6157 338.968 22.9073 338.968 23.206V27H337.715Z" fill="#121212"/>
<path d="M386.557 27.21C385.843 27.21 385.199 27.0887 384.625 26.846C384.056 26.6033 383.584 26.258 383.211 25.81C382.842 25.3573 382.602 24.823 382.49 24.207L383.778 24.004C383.941 24.6387 384.28 25.1357 384.793 25.495C385.311 25.8497 385.92 26.027 386.62 26.027C387.073 26.027 387.481 25.957 387.845 25.817C388.214 25.6723 388.505 25.467 388.72 25.201C388.935 24.935 389.042 24.62 389.042 24.256C389.042 24.032 389.002 23.8407 388.923 23.682C388.848 23.5187 388.743 23.381 388.608 23.269C388.477 23.1523 388.328 23.0543 388.16 22.975C387.992 22.8957 387.817 22.8303 387.635 22.779L385.066 22.016C384.786 21.932 384.515 21.827 384.254 21.701C383.993 21.5703 383.759 21.4093 383.554 21.218C383.349 21.022 383.185 20.7887 383.064 20.518C382.943 20.2427 382.882 19.9183 382.882 19.545C382.882 18.9477 383.036 18.439 383.344 18.019C383.657 17.5943 384.079 17.27 384.611 17.046C385.143 16.822 385.743 16.7123 386.41 16.717C387.087 16.7217 387.691 16.843 388.223 17.081C388.76 17.3143 389.203 17.6503 389.553 18.089C389.908 18.5277 390.146 19.0527 390.267 19.664L388.944 19.895C388.874 19.4843 388.718 19.132 388.475 18.838C388.237 18.5393 387.938 18.3107 387.579 18.152C387.22 17.9887 386.825 17.9047 386.396 17.9C385.985 17.8953 385.614 17.9607 385.283 18.096C384.952 18.2313 384.688 18.4203 384.492 18.663C384.296 18.901 384.198 19.1763 384.198 19.489C384.198 19.797 384.287 20.0467 384.464 20.238C384.641 20.4247 384.858 20.574 385.115 20.686C385.376 20.7933 385.631 20.882 385.878 20.952L387.796 21.505C388.015 21.5657 388.267 21.6497 388.552 21.757C388.841 21.8643 389.121 22.016 389.392 22.212C389.663 22.4033 389.887 22.66 390.064 22.982C390.241 23.2993 390.33 23.7007 390.33 24.186C390.33 24.6713 390.232 25.103 390.036 25.481C389.845 25.859 389.576 26.1763 389.231 26.433C388.886 26.685 388.484 26.8763 388.027 27.007C387.57 27.1423 387.08 27.21 386.557 27.21ZM395.494 27.21C394.752 27.21 394.104 27.0467 393.548 26.72C392.998 26.3887 392.568 25.929 392.26 25.341C391.952 24.7483 391.798 24.0577 391.798 23.269C391.798 22.443 391.95 21.729 392.253 21.127C392.557 20.5203 392.979 20.0537 393.52 19.727C394.066 19.3957 394.706 19.23 395.438 19.23C396.199 19.23 396.845 19.405 397.377 19.755C397.914 20.105 398.315 20.6043 398.581 21.253C398.852 21.9017 398.969 22.674 398.931 23.57H397.671V23.122C397.657 22.1933 397.468 21.5003 397.104 21.043C396.74 20.581 396.199 20.35 395.48 20.35C394.71 20.35 394.125 20.5973 393.723 21.092C393.322 21.5867 393.121 22.296 393.121 23.22C393.121 24.1113 393.322 24.802 393.723 25.292C394.125 25.782 394.696 26.027 395.438 26.027C395.938 26.027 396.372 25.9127 396.74 25.684C397.109 25.4553 397.398 25.1263 397.608 24.697L398.805 25.11C398.511 25.7773 398.068 26.2953 397.475 26.664C396.887 27.028 396.227 27.21 395.494 27.21ZM392.701 23.57V22.569H398.287V23.57H392.701ZM400.91 27V19.44H402.023V21.267L401.841 21.029C401.93 20.7957 402.044 20.581 402.184 20.385C402.329 20.189 402.49 20.028 402.667 19.902C402.863 19.7433 403.085 19.622 403.332 19.538C403.579 19.454 403.831 19.405 404.088 19.391C404.345 19.3723 404.585 19.3887 404.809 19.44V20.609C404.548 20.539 404.261 20.5203 403.948 20.553C403.635 20.5857 403.346 20.7 403.08 20.896C402.837 21.0687 402.648 21.2787 402.513 21.526C402.382 21.7733 402.291 22.0417 402.24 22.331C402.189 22.6157 402.163 22.9073 402.163 23.206V27H400.91ZM408.597 27L405.853 19.44H407.113L409.234 25.411L411.348 19.44H412.615L409.871 27H408.597ZM414.441 18.103V16.815H415.687V18.103H414.441ZM414.441 27V19.44H415.687V27H414.441ZM421.392 27.21C420.627 27.21 419.976 27.0397 419.439 26.699C418.907 26.3537 418.501 25.88 418.221 25.278C417.941 24.676 417.796 23.99 417.787 23.22C417.796 22.4313 417.943 21.7383 418.228 21.141C418.517 20.539 418.93 20.07 419.467 19.734C420.004 19.398 420.65 19.23 421.406 19.23C422.204 19.23 422.89 19.426 423.464 19.818C424.043 20.21 424.43 20.7467 424.626 21.428L423.394 21.799C423.235 21.3603 422.976 21.0197 422.617 20.777C422.262 20.5343 421.854 20.413 421.392 20.413C420.874 20.413 420.447 20.5343 420.111 20.777C419.775 21.015 419.525 21.3463 419.362 21.771C419.199 22.191 419.115 22.674 419.11 23.22C419.119 24.06 419.313 24.739 419.691 25.257C420.074 25.7703 420.641 26.027 421.392 26.027C421.887 26.027 422.297 25.915 422.624 25.691C422.951 25.4623 423.198 25.1333 423.366 24.704L424.626 25.033C424.365 25.7377 423.956 26.2767 423.401 26.65C422.846 27.0233 422.176 27.21 421.392 27.21ZM429.546 27.21C428.804 27.21 428.155 27.0467 427.6 26.72C427.049 26.3887 426.62 25.929 426.312 25.341C426.004 24.7483 425.85 24.0577 425.85 23.269C425.85 22.443 426.001 21.729 426.305 21.127C426.608 20.5203 427.03 20.0537 427.572 19.727C428.118 19.3957 428.757 19.23 429.49 19.23C430.25 19.23 430.897 19.405 431.429 19.755C431.965 20.105 432.367 20.6043 432.633 21.253C432.903 21.9017 433.02 22.674 432.983 23.57H431.723V23.122C431.709 22.1933 431.52 21.5003 431.156 21.043C430.792 20.581 430.25 20.35 429.532 20.35C428.762 20.35 428.176 20.5973 427.775 21.092C427.373 21.5867 427.173 22.296 427.173 23.22C427.173 24.1113 427.373 24.802 427.775 25.292C428.176 25.782 428.748 26.027 429.49 26.027C429.989 26.027 430.423 25.9127 430.792 25.684C431.16 25.4553 431.45 25.1263 431.66 24.697L432.857 25.11C432.563 25.7773 432.119 26.2953 431.527 26.664C430.939 27.028 430.278 27.21 429.546 27.21ZM426.753 23.57V22.569H432.339V23.57H426.753ZM437.817 27.203C436.916 27.203 436.177 27.007 435.598 26.615C435.024 26.2183 434.672 25.6653 434.541 24.956L435.815 24.753C435.918 25.1637 436.153 25.4903 436.522 25.733C436.891 25.971 437.348 26.09 437.894 26.09C438.412 26.09 438.818 25.9827 439.112 25.768C439.406 25.5533 439.553 25.2617 439.553 24.893C439.553 24.6783 439.504 24.5057 439.406 24.375C439.308 24.2397 439.105 24.1137 438.797 23.997C438.494 23.8803 438.034 23.7403 437.418 23.577C436.751 23.3997 436.226 23.2153 435.843 23.024C435.46 22.8327 435.187 22.611 435.024 22.359C434.861 22.107 434.779 21.8013 434.779 21.442C434.779 20.9987 434.9 20.6113 435.143 20.28C435.386 19.944 435.724 19.685 436.158 19.503C436.597 19.321 437.105 19.23 437.684 19.23C438.258 19.23 438.771 19.321 439.224 19.503C439.677 19.685 440.041 19.944 440.316 20.28C440.596 20.6113 440.762 20.9987 440.813 21.442L439.539 21.673C439.478 21.267 439.282 20.9473 438.951 20.714C438.624 20.4807 438.202 20.357 437.684 20.343C437.194 20.3243 436.795 20.4107 436.487 20.602C436.184 20.7933 436.032 21.0523 436.032 21.379C436.032 21.561 436.088 21.7173 436.2 21.848C436.317 21.9787 436.529 22.1023 436.837 22.219C437.15 22.3357 437.602 22.4687 438.195 22.618C438.862 22.786 439.387 22.9703 439.77 23.171C440.157 23.367 440.433 23.6003 440.596 23.871C440.759 24.137 440.841 24.466 440.841 24.858C440.841 25.586 440.573 26.16 440.036 26.58C439.499 26.9953 438.76 27.203 437.817 27.203Z" fill="#121212"/>
<path d="M482.98 27V16.92H486.963C487.061 16.92 487.178 16.9247 487.313 16.934C487.448 16.9387 487.579 16.9527 487.705 16.976C488.251 17.06 488.708 17.2467 489.077 17.536C489.45 17.8253 489.73 18.1917 489.917 18.635C490.104 19.0737 490.197 19.5613 490.197 20.098C490.197 20.8773 489.994 21.554 489.588 22.128C489.182 22.6973 488.587 23.0543 487.803 23.199L487.327 23.276H484.226V27H482.98ZM488.979 27L486.991 22.898L488.223 22.52L490.407 27H488.979ZM484.226 22.093H486.921C487.01 22.093 487.11 22.0883 487.222 22.079C487.339 22.0697 487.448 22.0533 487.551 22.03C487.873 21.9553 488.134 21.82 488.335 21.624C488.54 21.4233 488.69 21.19 488.783 20.924C488.876 20.6533 488.923 20.378 488.923 20.098C488.923 19.818 488.876 19.545 488.783 19.279C488.69 19.0083 488.54 18.7727 488.335 18.572C488.134 18.3713 487.873 18.236 487.551 18.166C487.448 18.138 487.339 18.1217 487.222 18.117C487.11 18.1077 487.01 18.103 486.921 18.103H484.226V22.093ZM495.645 27.21C494.903 27.21 494.254 27.0467 493.699 26.72C493.148 26.3887 492.719 25.929 492.411 25.341C492.103 24.7483 491.949 24.0577 491.949 23.269C491.949 22.443 492.1 21.729 492.404 21.127C492.707 20.5203 493.129 20.0537 493.671 19.727C494.217 19.3957 494.856 19.23 495.589 19.23C496.349 19.23 496.996 19.405 497.528 19.755C498.064 20.105 498.466 20.6043 498.732 21.253C499.002 21.9017 499.119 22.674 499.082 23.57H497.822V23.122C497.808 22.1933 497.619 21.5003 497.255 21.043C496.891 20.581 496.349 20.35 495.631 20.35C494.861 20.35 494.275 20.5973 493.874 21.092C493.472 21.5867 493.272 22.296 493.272 23.22C493.272 24.1113 493.472 24.802 493.874 25.292C494.275 25.782 494.847 26.027 495.589 26.027C496.088 26.027 496.522 25.9127 496.891 25.684C497.259 25.4553 497.549 25.1263 497.759 24.697L498.956 25.11C498.662 25.7773 498.218 26.2953 497.626 26.664C497.038 27.028 496.377 27.21 495.645 27.21ZM492.852 23.57V22.569H498.438V23.57H492.852ZM502.831 27L500.087 19.44H501.347L503.468 25.411L505.582 19.44H506.849L504.105 27H502.831ZM508.675 18.103V16.815H509.921V18.103H508.675ZM508.675 27V19.44H509.921V27H508.675ZM515.717 27.21C514.975 27.21 514.327 27.0467 513.771 26.72C513.221 26.3887 512.791 25.929 512.483 25.341C512.175 24.7483 512.021 24.0577 512.021 23.269C512.021 22.443 512.173 21.729 512.476 21.127C512.78 20.5203 513.202 20.0537 513.743 19.727C514.289 19.3957 514.929 19.23 515.661 19.23C516.422 19.23 517.068 19.405 517.6 19.755C518.137 20.105 518.538 20.6043 518.804 21.253C519.075 21.9017 519.192 22.674 519.154 23.57H517.894V23.122C517.88 22.1933 517.691 21.5003 517.327 21.043C516.963 20.581 516.422 20.35 515.703 20.35C514.933 20.35 514.348 20.5973 513.946 21.092C513.545 21.5867 513.344 22.296 513.344 23.22C513.344 24.1113 513.545 24.802 513.946 25.292C514.348 25.782 514.919 26.027 515.661 26.027C516.161 26.027 516.595 25.9127 516.963 25.684C517.332 25.4553 517.621 25.1263 517.831 24.697L519.028 25.11C518.734 25.7773 518.291 26.2953 517.698 26.664C517.11 27.028 516.45 27.21 515.717 27.21ZM512.924 23.57V22.569H518.51V23.57H512.924ZM522.469 27L520.159 19.433L521.398 19.44L523.085 24.97L524.786 19.44H525.885L527.579 24.97L529.273 19.44H530.505L528.195 27H527.159L525.332 21.253L523.505 27H522.469Z" fill="#121212"/>
<path d="M1080.56 27.21C1079.84 27.21 1079.2 27.0887 1078.63 26.846C1078.06 26.6033 1077.58 26.258 1077.21 25.81C1076.84 25.3573 1076.6 24.823 1076.49 24.207L1077.78 24.004C1077.94 24.6387 1078.28 25.1357 1078.79 25.495C1079.31 25.8497 1079.92 26.027 1080.62 26.027C1081.07 26.027 1081.48 25.957 1081.85 25.817C1082.21 25.6723 1082.51 25.467 1082.72 25.201C1082.93 24.935 1083.04 24.62 1083.04 24.256C1083.04 24.032 1083 23.8407 1082.92 23.682C1082.85 23.5187 1082.74 23.381 1082.61 23.269C1082.48 23.1523 1082.33 23.0543 1082.16 22.975C1081.99 22.8957 1081.82 22.8303 1081.64 22.779L1079.07 22.016C1078.79 21.932 1078.52 21.827 1078.25 21.701C1077.99 21.5703 1077.76 21.4093 1077.55 21.218C1077.35 21.022 1077.19 20.7887 1077.06 20.518C1076.94 20.2427 1076.88 19.9183 1076.88 19.545C1076.88 18.9477 1077.04 18.439 1077.34 18.019C1077.66 17.5943 1078.08 17.27 1078.61 17.046C1079.14 16.822 1079.74 16.7123 1080.41 16.717C1081.09 16.7217 1081.69 16.843 1082.22 17.081C1082.76 17.3143 1083.2 17.6503 1083.55 18.089C1083.91 18.5277 1084.15 19.0527 1084.27 19.664L1082.94 19.895C1082.87 19.4843 1082.72 19.132 1082.48 18.838C1082.24 18.5393 1081.94 18.3107 1081.58 18.152C1081.22 17.9887 1080.83 17.9047 1080.4 17.9C1079.99 17.8953 1079.61 17.9607 1079.28 18.096C1078.95 18.2313 1078.69 18.4203 1078.49 18.663C1078.3 18.901 1078.2 19.1763 1078.2 19.489C1078.2 19.797 1078.29 20.0467 1078.46 20.238C1078.64 20.4247 1078.86 20.574 1079.12 20.686C1079.38 20.7933 1079.63 20.882 1079.88 20.952L1081.8 21.505C1082.02 21.5657 1082.27 21.6497 1082.55 21.757C1082.84 21.8643 1083.12 22.016 1083.39 22.212C1083.66 22.4033 1083.89 22.66 1084.06 22.982C1084.24 23.2993 1084.33 23.7007 1084.33 24.186C1084.33 24.6713 1084.23 25.103 1084.04 25.481C1083.84 25.859 1083.58 26.1763 1083.23 26.433C1082.89 26.685 1082.48 26.8763 1082.03 27.007C1081.57 27.1423 1081.08 27.21 1080.56 27.21ZM1086.36 18.103V16.815H1087.6V18.103H1086.36ZM1086.36 27V19.44H1087.6V27H1086.36ZM1093.18 30.57C1092.79 30.57 1092.4 30.5093 1092.02 30.388C1091.64 30.2667 1091.3 30.0823 1090.98 29.835C1090.67 29.5923 1090.4 29.2843 1090.19 28.911L1091.34 28.309C1091.52 28.6777 1091.79 28.946 1092.13 29.114C1092.47 29.282 1092.83 29.366 1093.19 29.366C1093.67 29.366 1094.07 29.2773 1094.39 29.1C1094.71 28.9273 1094.94 28.6683 1095.09 28.323C1095.24 27.9777 1095.32 27.5483 1095.31 27.035V24.97H1095.46V19.44H1096.56V27.049C1096.56 27.2543 1096.56 27.4527 1096.54 27.644C1096.53 27.8353 1096.51 28.0243 1096.47 28.211C1096.38 28.7477 1096.18 29.1887 1095.89 29.534C1095.6 29.884 1095.23 30.143 1094.77 30.311C1094.32 30.4837 1093.79 30.57 1093.18 30.57ZM1093.09 27.21C1092.39 27.21 1091.78 27.035 1091.28 26.685C1090.78 26.3303 1090.39 25.852 1090.11 25.25C1089.84 24.648 1089.7 23.969 1089.7 23.213C1089.7 22.457 1089.84 21.778 1090.11 21.176C1090.39 20.574 1090.78 20.1003 1091.28 19.755C1091.78 19.405 1092.39 19.23 1093.09 19.23C1093.8 19.23 1094.4 19.4027 1094.88 19.748C1095.37 20.0933 1095.74 20.567 1095.98 21.169C1096.24 21.771 1096.36 22.4523 1096.36 23.213C1096.36 23.9643 1096.24 24.6433 1095.98 25.25C1095.74 25.852 1095.37 26.3303 1094.88 26.685C1094.4 27.035 1093.8 27.21 1093.09 27.21ZM1093.25 26.069C1093.76 26.069 1094.17 25.9477 1094.5 25.705C1094.83 25.4577 1095.07 25.1193 1095.22 24.69C1095.38 24.256 1095.46 23.7637 1095.46 23.213C1095.46 22.653 1095.38 22.1607 1095.22 21.736C1095.07 21.3067 1094.83 20.973 1094.51 20.735C1094.18 20.4923 1093.78 20.371 1093.28 20.371C1092.77 20.371 1092.34 20.497 1092.01 20.749C1091.68 21.001 1091.43 21.3417 1091.27 21.771C1091.11 22.2003 1091.03 22.681 1091.03 23.213C1091.03 23.7497 1091.11 24.235 1091.27 24.669C1091.44 25.0983 1091.68 25.439 1092.01 25.691C1092.34 25.943 1092.75 26.069 1093.25 26.069ZM1104.32 27V23.213C1104.32 22.8537 1104.29 22.5083 1104.22 22.177C1104.16 21.8457 1104.05 21.5493 1103.9 21.288C1103.74 21.022 1103.53 20.812 1103.27 20.658C1103 20.504 1102.67 20.427 1102.27 20.427C1101.96 20.427 1101.67 20.4807 1101.42 20.588C1101.17 20.6907 1100.95 20.8493 1100.77 21.064C1100.58 21.2787 1100.44 21.5493 1100.34 21.876C1100.24 22.198 1100.19 22.5783 1100.19 23.017L1099.37 22.765C1099.37 22.0323 1099.5 21.4047 1099.77 20.882C1100.03 20.3547 1100.4 19.951 1100.88 19.671C1101.36 19.3863 1101.92 19.244 1102.57 19.244C1103.06 19.244 1103.48 19.321 1103.83 19.475C1104.17 19.629 1104.46 19.8343 1104.69 20.091C1104.91 20.343 1105.09 20.6277 1105.23 20.945C1105.36 21.2577 1105.45 21.5773 1105.5 21.904C1105.55 22.226 1105.58 22.5317 1105.58 22.821V27H1104.32ZM1098.93 27V19.44H1100.05V21.463H1100.19V27H1098.93ZM1111.18 27V16.92H1112.43V27H1111.18ZM1120.33 27V23.213C1120.33 22.8537 1120.3 22.5083 1120.24 22.177C1120.18 21.8457 1120.07 21.5493 1119.91 21.288C1119.75 21.022 1119.54 20.812 1119.28 20.658C1119.02 20.504 1118.68 20.427 1118.28 20.427C1117.97 20.427 1117.69 20.4807 1117.43 20.588C1117.18 20.6907 1116.96 20.8493 1116.78 21.064C1116.6 21.2787 1116.45 21.5493 1116.35 21.876C1116.25 22.198 1116.2 22.5783 1116.2 23.017L1115.39 22.765C1115.39 22.0323 1115.52 21.4047 1115.78 20.882C1116.04 20.3547 1116.41 19.951 1116.89 19.671C1117.37 19.3863 1117.94 19.244 1118.58 19.244C1119.07 19.244 1119.49 19.321 1119.84 19.475C1120.18 19.629 1120.47 19.8343 1120.7 20.091C1120.93 20.343 1121.11 20.6277 1121.24 20.945C1121.37 21.2577 1121.46 21.5773 1121.51 21.904C1121.57 22.226 1121.59 22.5317 1121.59 22.821V27H1120.33ZM1114.94 27V19.44H1116.06V21.463H1116.2V27H1114.94Z" fill="#121212"/>
<rect x="1143" width="97" height="44" rx="10" fill="#4D77FF"/>
<path d="M1169.56 27.21C1168.84 27.21 1168.2 27.0887 1167.63 26.846C1167.06 26.6033 1166.58 26.258 1166.21 25.81C1165.84 25.3573 1165.6 24.823 1165.49 24.207L1166.78 24.004C1166.94 24.6387 1167.28 25.1357 1167.79 25.495C1168.31 25.8497 1168.92 26.027 1169.62 26.027C1170.07 26.027 1170.48 25.957 1170.85 25.817C1171.21 25.6723 1171.51 25.467 1171.72 25.201C1171.93 24.935 1172.04 24.62 1172.04 24.256C1172.04 24.032 1172 23.8407 1171.92 23.682C1171.85 23.5187 1171.74 23.381 1171.61 23.269C1171.48 23.1523 1171.33 23.0543 1171.16 22.975C1170.99 22.8957 1170.82 22.8303 1170.64 22.779L1168.07 22.016C1167.79 21.932 1167.52 21.827 1167.25 21.701C1166.99 21.5703 1166.76 21.4093 1166.55 21.218C1166.35 21.022 1166.19 20.7887 1166.06 20.518C1165.94 20.2427 1165.88 19.9183 1165.88 19.545C1165.88 18.9477 1166.04 18.439 1166.34 18.019C1166.66 17.5943 1167.08 17.27 1167.61 17.046C1168.14 16.822 1168.74 16.7123 1169.41 16.717C1170.09 16.7217 1170.69 16.843 1171.22 17.081C1171.76 17.3143 1172.2 17.6503 1172.55 18.089C1172.91 18.5277 1173.15 19.0527 1173.27 19.664L1171.94 19.895C1171.87 19.4843 1171.72 19.132 1171.48 18.838C1171.24 18.5393 1170.94 18.3107 1170.58 18.152C1170.22 17.9887 1169.83 17.9047 1169.4 17.9C1168.99 17.8953 1168.61 17.9607 1168.28 18.096C1167.95 18.2313 1167.69 18.4203 1167.49 18.663C1167.3 18.901 1167.2 19.1763 1167.2 19.489C1167.2 19.797 1167.29 20.0467 1167.46 20.238C1167.64 20.4247 1167.86 20.574 1168.12 20.686C1168.38 20.7933 1168.63 20.882 1168.88 20.952L1170.8 21.505C1171.02 21.5657 1171.27 21.6497 1171.55 21.757C1171.84 21.8643 1172.12 22.016 1172.39 22.212C1172.66 22.4033 1172.89 22.66 1173.06 22.982C1173.24 23.2993 1173.33 23.7007 1173.33 24.186C1173.33 24.6713 1173.23 25.103 1173.04 25.481C1172.84 25.859 1172.58 26.1763 1172.23 26.433C1171.89 26.685 1171.48 26.8763 1171.03 27.007C1170.57 27.1423 1170.08 27.21 1169.56 27.21ZM1175.36 18.103V16.815H1176.6V18.103H1175.36ZM1175.36 27V19.44H1176.6V27H1175.36ZM1182.18 30.57C1181.79 30.57 1181.4 30.5093 1181.02 30.388C1180.64 30.2667 1180.3 30.0823 1179.98 29.835C1179.67 29.5923 1179.4 29.2843 1179.19 28.911L1180.34 28.309C1180.52 28.6777 1180.79 28.946 1181.13 29.114C1181.47 29.282 1181.83 29.366 1182.19 29.366C1182.67 29.366 1183.07 29.2773 1183.39 29.1C1183.71 28.9273 1183.94 28.6683 1184.09 28.323C1184.24 27.9777 1184.32 27.5483 1184.31 27.035V24.97H1184.46V19.44H1185.56V27.049C1185.56 27.2543 1185.56 27.4527 1185.54 27.644C1185.53 27.8353 1185.51 28.0243 1185.47 28.211C1185.38 28.7477 1185.18 29.1887 1184.89 29.534C1184.6 29.884 1184.23 30.143 1183.77 30.311C1183.32 30.4837 1182.79 30.57 1182.18 30.57ZM1182.09 27.21C1181.39 27.21 1180.78 27.035 1180.28 26.685C1179.78 26.3303 1179.39 25.852 1179.11 25.25C1178.84 24.648 1178.7 23.969 1178.7 23.213C1178.7 22.457 1178.84 21.778 1179.11 21.176C1179.39 20.574 1179.78 20.1003 1180.28 19.755C1180.78 19.405 1181.39 19.23 1182.09 19.23C1182.8 19.23 1183.4 19.4027 1183.88 19.748C1184.37 20.0933 1184.74 20.567 1184.98 21.169C1185.24 21.771 1185.36 22.4523 1185.36 23.213C1185.36 23.9643 1185.24 24.6433 1184.98 25.25C1184.74 25.852 1184.37 26.3303 1183.88 26.685C1183.4 27.035 1182.8 27.21 1182.09 27.21ZM1182.25 26.069C1182.76 26.069 1183.17 25.9477 1183.5 25.705C1183.83 25.4577 1184.07 25.1193 1184.22 24.69C1184.38 24.256 1184.46 23.7637 1184.46 23.213C1184.46 22.653 1184.38 22.1607 1184.22 21.736C1184.07 21.3067 1183.83 20.973 1183.51 20.735C1183.18 20.4923 1182.78 20.371 1182.28 20.371C1181.77 20.371 1181.34 20.497 1181.01 20.749C1180.68 21.001 1180.43 21.3417 1180.27 21.771C1180.11 22.2003 1180.03 22.681 1180.03 23.213C1180.03 23.7497 1180.11 24.235 1180.27 24.669C1180.44 25.0983 1180.68 25.439 1181.01 25.691C1181.34 25.943 1181.75 26.069 1182.25 26.069ZM1193.32 27V23.213C1193.32 22.8537 1193.29 22.5083 1193.22 22.177C1193.16 21.8457 1193.05 21.5493 1192.9 21.288C1192.74 21.022 1192.53 20.812 1192.27 20.658C1192 20.504 1191.67 20.427 1191.27 20.427C1190.96 20.427 1190.67 20.4807 1190.42 20.588C1190.17 20.6907 1189.95 20.8493 1189.77 21.064C1189.58 21.2787 1189.44 21.5493 1189.34 21.876C1189.24 22.198 1189.19 22.5783 1189.19 23.017L1188.37 22.765C1188.37 22.0323 1188.5 21.4047 1188.77 20.882C1189.03 20.3547 1189.4 19.951 1189.88 19.671C1190.36 19.3863 1190.92 19.244 1191.57 19.244C1192.06 19.244 1192.48 19.321 1192.83 19.475C1193.17 19.629 1193.46 19.8343 1193.69 20.091C1193.91 20.343 1194.09 20.6277 1194.23 20.945C1194.36 21.2577 1194.45 21.5773 1194.5 21.904C1194.55 22.226 1194.58 22.5317 1194.58 22.821V27H1193.32ZM1187.93 27V19.44H1189.05V21.463H1189.19V27H1187.93ZM1204.02 27.21C1203.24 27.21 1202.55 27.049 1201.96 26.727C1201.36 26.405 1200.89 25.9547 1200.55 25.376C1200.21 24.7927 1200.04 24.109 1200.04 23.325V16.927L1201.3 16.92V23.22C1201.3 23.696 1201.38 24.1113 1201.54 24.466C1201.71 24.816 1201.92 25.1077 1202.19 25.341C1202.45 25.5743 1202.74 25.7493 1203.06 25.866C1203.38 25.978 1203.7 26.034 1204.02 26.034C1204.34 26.034 1204.66 25.9757 1204.99 25.859C1205.31 25.7423 1205.6 25.5697 1205.86 25.341C1206.13 25.1077 1206.34 24.8137 1206.5 24.459C1206.66 24.1043 1206.74 23.6913 1206.74 23.22V16.92H1208V23.325C1208 24.1043 1207.83 24.7857 1207.49 25.369C1207.15 25.9523 1206.68 26.405 1206.09 26.727C1205.49 27.049 1204.8 27.21 1204.02 27.21ZM1213.85 27.21C1213.14 27.21 1212.54 27.035 1212.06 26.685C1211.57 26.3303 1211.2 25.852 1210.95 25.25C1210.7 24.6433 1210.58 23.9643 1210.58 23.213C1210.58 22.4523 1210.7 21.771 1210.95 21.169C1211.2 20.567 1211.57 20.0933 1212.06 19.748C1212.55 19.4027 1213.15 19.23 1213.86 19.23C1214.56 19.23 1215.16 19.405 1215.66 19.755C1216.17 20.1003 1216.56 20.574 1216.83 21.176C1217.1 21.778 1217.24 22.457 1217.24 23.213C1217.24 23.969 1217.1 24.648 1216.83 25.25C1216.56 25.852 1216.17 26.3303 1215.66 26.685C1215.16 27.035 1214.55 27.21 1213.85 27.21ZM1210.37 30.36V19.44H1211.48V25.005H1211.62V30.36H1210.37ZM1213.69 26.069C1214.19 26.069 1214.61 25.943 1214.93 25.691C1215.26 25.439 1215.51 25.0983 1215.67 24.669C1215.83 24.235 1215.91 23.7497 1215.91 23.213C1215.91 22.681 1215.83 22.2003 1215.67 21.771C1215.51 21.3417 1215.26 21.001 1214.93 20.749C1214.6 20.497 1214.17 20.371 1213.66 20.371C1213.17 20.371 1212.76 20.4923 1212.44 20.735C1212.12 20.973 1211.88 21.3067 1211.72 21.736C1211.56 22.1607 1211.48 22.653 1211.48 23.213C1211.48 23.7637 1211.56 24.256 1211.71 24.69C1211.87 25.1193 1212.12 25.4577 1212.44 25.705C1212.77 25.9477 1213.19 26.069 1213.69 26.069Z" fill="white"/>
</svg>
